<svg width="12" height="12" viewBox="0 0 12 12" fill="none" xmlns="http://www.w3.org/2000/svg">
<path d="M0.15343 0.327079L0.229541 0.239499C0.361942 0.107068 0.537472 0.0265479 0.724215 0.0125804C0.910958 -0.00138701 1.09651 0.0521255 1.24714 0.163388L1.33472 0.239499L5.99524 4.89898L10.6558 0.238457C10.7279 0.163806 10.8142 0.104275 10.9097 0.0633386C11.0051 0.0224021 11.1077 0.000879345 11.2115 2.63871e-05C11.3154 -0.00082657 11.4183 0.0190072 11.5144 0.0583705C11.6105 0.0977338 11.6978 0.155838 11.7712 0.229293C11.8445 0.302749 11.9026 0.390084 11.9418 0.486203C11.9811 0.582322 12.0008 0.6853 11.9999 0.789128C11.9989 0.892956 11.9773 0.995555 11.9363 1.09094C11.8953 1.18632 11.8357 1.27258 11.7609 1.34468L7.10147 6.0052L11.762 10.6657C11.8943 10.7983 11.9746 10.9739 11.9884 11.1606C12.0021 11.3473 11.9485 11.5328 11.8371 11.6833L11.7609 11.7709C11.6285 11.9033 11.453 11.9839 11.2663 11.9978C11.0795 12.0118 10.894 11.9583 10.7433 11.847L10.6558 11.7709L5.99524 7.11142L1.33472 11.7719C1.18717 11.9143 0.989609 11.993 0.78458 11.9912C0.579551 11.9893 0.383462 11.907 0.238546 11.7619C0.0936311 11.6169 0.0114849 11.4207 0.00980057 11.2157C0.00811624 11.0106 0.0870287 10.8131 0.229541 10.6657L4.88902 6.0052L0.228499 1.34468C0.0962233 1.21215 0.0158961 1.03655 0.00212018 0.84981C-0.0116557 0.66307 0.0420344 0.477587 0.15343 0.327079L0.229541 0.239499L0.15343 0.327079Z" fill="#121212"/>
</svg>
