<svg width="111" height="35" viewBox="0 0 111 35" fill="none" xmlns="http://www.w3.org/2000/svg">
<g id="Aspire.">
<path d="M16.7344 21.7266H7.48828L5.73047 27H0.123047L9.65039 1.40625H14.5371L24.1172 27H18.5098L16.7344 21.7266ZM8.91211 17.4551H15.3105L12.0938 7.875L8.91211 17.4551Z" fill="#121212"/>
<path d="M36.1146 21.7441C36.1146 21.123 35.8041 20.6367 35.183 20.2852C34.5736 19.9219 33.5892 19.5996 32.2298 19.3184C27.7064 18.3691 25.4447 16.4473 25.4447 13.5527C25.4447 11.8652 26.142 10.459 27.5365 9.33398C28.9427 8.19727 30.7767 7.62891 33.0384 7.62891C35.4525 7.62891 37.3802 8.19727 38.8216 9.33398C40.2748 10.4707 41.0013 11.9473 41.0013 13.7637H35.9212C35.9212 13.0371 35.6869 12.4395 35.2181 11.9707C34.7494 11.4902 34.017 11.25 33.0209 11.25C32.1654 11.25 31.5033 11.4434 31.0345 11.8301C30.5658 12.2168 30.3314 12.709 30.3314 13.3066C30.3314 13.8691 30.5951 14.3262 31.1224 14.6777C31.6615 15.0176 32.5638 15.3164 33.8295 15.5742C35.0951 15.8203 36.1615 16.1016 37.0287 16.418C39.7123 17.4023 41.0541 19.1074 41.0541 21.5332C41.0541 23.2676 40.3099 24.6738 38.8216 25.752C37.3334 26.8184 35.4115 27.3516 33.056 27.3516C31.4623 27.3516 30.0443 27.0703 28.8021 26.5078C27.5716 25.9336 26.6048 25.1543 25.9017 24.1699C25.1986 23.1738 24.847 22.1016 24.847 20.9531H29.6634C29.7103 21.8555 30.0443 22.5469 30.6654 23.0273C31.2865 23.5078 32.1185 23.748 33.1615 23.748C34.1341 23.748 34.8666 23.5664 35.3587 23.2031C35.8627 22.8281 36.1146 22.3418 36.1146 21.7441Z" fill="#121212"/>
<path d="M61.1023 17.666C61.1023 20.5957 60.4343 22.9453 59.0984 24.7148C57.7741 26.4727 55.9812 27.3516 53.7195 27.3516C51.7976 27.3516 50.2448 26.6836 49.0612 25.3477V34.3125H43.9812V7.98047H48.6921L48.8679 9.84375C50.0984 8.36719 51.7038 7.62891 53.6843 7.62891C56.028 7.62891 57.8503 8.49609 59.1511 10.2305C60.4519 11.9648 61.1023 14.3555 61.1023 17.4023V17.666ZM56.0222 17.2969C56.0222 15.5273 55.7058 14.1621 55.073 13.2012C54.4519 12.2402 53.5437 11.7598 52.3484 11.7598C50.7546 11.7598 49.6589 12.3691 49.0612 13.5879V21.375C49.6823 22.6289 50.7898 23.2559 52.3835 23.2559C54.8093 23.2559 56.0222 21.2695 56.0222 17.2969Z" fill="#121212"/>
<path d="M69.2677 27H64.17V7.98047H69.2677V27ZM63.8712 3.05859C63.8712 2.29688 64.1231 1.66992 64.627 1.17773C65.1427 0.685547 65.8399 0.439453 66.7188 0.439453C67.586 0.439453 68.2774 0.685547 68.793 1.17773C69.3087 1.66992 69.5665 2.29688 69.5665 3.05859C69.5665 3.83203 69.3028 4.46484 68.7755 4.95703C68.2598 5.44922 67.5743 5.69531 66.7188 5.69531C65.8634 5.69531 65.172 5.44922 64.6446 4.95703C64.129 4.46484 63.8712 3.83203 63.8712 3.05859Z" fill="#121212"/>
<path d="M83.7963 12.7441C83.1049 12.6504 82.4955 12.6035 81.9682 12.6035C80.0463 12.6035 78.7866 13.2539 78.1889 14.5547V27H73.1088V7.98047H77.9077L78.0483 10.248C79.0678 8.50195 80.4799 7.62891 82.2846 7.62891C82.8471 7.62891 83.3745 7.70508 83.8666 7.85742L83.7963 12.7441Z" fill="#121212"/>
<path d="M94.2996 27.3516C91.5105 27.3516 89.2371 26.4961 87.4793 24.7852C85.7332 23.0742 84.8602 20.7949 84.8602 17.9473V17.4551C84.8602 15.5449 85.2293 13.8398 85.9676 12.3398C86.7059 10.8281 87.7488 9.66797 89.0965 8.85938C90.4559 8.03906 92.0027 7.62891 93.7371 7.62891C96.3387 7.62891 98.3836 8.44922 99.8719 10.0898C101.372 11.7305 102.122 14.0566 102.122 17.0684V19.1426H90.0105C90.1746 20.3848 90.6668 21.3809 91.4871 22.1309C92.3191 22.8809 93.368 23.2559 94.6336 23.2559C96.5906 23.2559 98.1199 22.5469 99.2215 21.1289L101.718 23.9238C100.956 25.002 99.9246 25.8457 98.6238 26.4551C97.323 27.0527 95.8816 27.3516 94.2996 27.3516ZM93.7195 11.7422C92.7117 11.7422 91.8914 12.082 91.2586 12.7617C90.6375 13.4414 90.2391 14.4141 90.0633 15.6797H97.1297V15.2754C97.1062 14.1504 96.8016 13.2832 96.2156 12.6738C95.6297 12.0527 94.7977 11.7422 93.7195 11.7422Z" fill="#121212"/>
<path d="M104.926 24.5039C104.926 23.6953 105.195 23.0391 105.735 22.5352C106.285 22.0312 106.971 21.7793 107.791 21.7793C108.623 21.7793 109.309 22.0312 109.848 22.5352C110.399 23.0391 110.674 23.6953 110.674 24.5039C110.674 25.3008 110.404 25.9512 109.865 26.4551C109.326 26.9473 108.635 27.1934 107.791 27.1934C106.959 27.1934 106.274 26.9473 105.735 26.4551C105.195 25.9512 104.926 25.3008 104.926 24.5039Z" fill="#121212"/>
</g>
</svg>
